<svg xmlns="http://www.w3.org/2000/svg" xmlns:xlink="http://www.w3.org/1999/xlink" viewBox="0 0 760 400"><defs><style>.cls-1{fill:url(#linear-gradient);}.cls-2{isolation:isolate;}.cls-3{fill:url(#linear-gradient-2);}.cls-4{mix-blend-mode:screen;fill:url(#linear-gradient-3);}.cls-5{opacity:0.34;}.cls-10,.cls-11,.cls-12,.cls-13,.cls-14,.cls-15,.cls-16,.cls-17,.cls-18,.cls-19,.cls-20,.cls-21,.cls-23,.cls-24,.cls-25,.cls-26,.cls-27,.cls-28,.cls-29,.cls-30,.cls-31,.cls-32,.cls-33,.cls-34,.cls-35,.cls-36,.cls-37,.cls-38,.cls-39,.cls-40,.cls-41,.cls-42,.cls-43,.cls-44,.cls-45,.cls-46,.cls-47,.cls-48,.cls-49,.cls-6,.cls-7,.cls-8,.cls-9{mix-blend-mode:overlay;}.cls-6{fill:url(#linear-gradient-4);}.cls-7{fill:url(#linear-gradient-5);}.cls-8{fill:url(#linear-gradient-6);}.cls-9{fill:url(#linear-gradient-7);}.cls-10{fill:url(#linear-gradient-8);}.cls-11{fill:url(#linear-gradient-9);}.cls-12{fill:url(#linear-gradient-10);}.cls-13{fill:url(#linear-gradient-11);}.cls-14{fill:url(#linear-gradient-12);}.cls-15{fill:url(#linear-gradient-13);}.cls-16{fill:url(#linear-gradient-14);}.cls-17{fill:url(#linear-gradient-15);}.cls-18{fill:url(#linear-gradient-16);}.cls-19{fill:url(#linear-gradient-17);}.cls-20{fill:url(#linear-gradient-18);}.cls-21{fill:url(#linear-gradient-19);}.cls-22{opacity:0.59;}.cls-23{fill:url(#linear-gradient-20);}.cls-24{fill:url(#linear-gradient-21);}.cls-25{fill:url(#linear-gradient-22);}.cls-26{fill:url(#linear-gradient-23);}.cls-27{fill:url(#linear-gradient-24);}.cls-28{fill:url(#linear-gradient-25);}.cls-29{fill:url(#linear-gradient-26);}.cls-30{fill:url(#linear-gradient-27);}.cls-31{fill:url(#linear-gradient-28);}.cls-32{fill:url(#linear-gradient-29);}.cls-33{fill:url(#linear-gradient-30);}.cls-34{fill:url(#linear-gradient-31);}.cls-35{fill:url(#linear-gradient-32);}.cls-36{fill:url(#linear-gradient-33);}.cls-37{fill:url(#linear-gradient-34);}.cls-38{fill:url(#linear-gradient-35);}.cls-39{fill:url(#linear-gradient-36);}.cls-40{fill:url(#linear-gradient-37);}.cls-41{fill:url(#linear-gradient-38);}.cls-42{fill:url(#linear-gradient-39);}.cls-43{fill:url(#linear-gradient-40);}.cls-44{fill:url(#linear-gradient-41);}.cls-45{fill:url(#linear-gradient-42);}.cls-46{fill:url(#linear-gradient-43);}.cls-47{fill:url(#linear-gradient-44);}.cls-48{fill:url(#linear-gradient-45);}.cls-49{fill:url(#linear-gradient-46);}.cls-50{mask:url(#mask);}.cls-51{fill:#cedde5;}.cls-52{fill:#aec6d3;}.cls-53{fill:#9baebe;}</style><linearGradient id="linear-gradient" y1="200" x2="760" y2="200" gradientUnits="userSpaceOnUse"><stop offset="0"/><stop offset="1" stop-color="#fff"/></linearGradient><linearGradient id="linear-gradient-2" x1="759.15" y1="401.6" x2="0.85" y2="-1.6" gradientUnits="userSpaceOnUse"><stop offset="0" stop-color="#cbd4da"/><stop offset="0.33" stop-color="#e0e6e9"/><stop offset="0.73" stop-color="#f5f7f8"/><stop offset="1" stop-color="#fcfdfd"/></linearGradient><linearGradient id="linear-gradient-3" x1="380" y1="400" x2="380" y2="0" xlink:href="#linear-gradient"/><linearGradient id="linear-gradient-4" x1="20.66" y1="-201.2" x2="20.66" y2="64.37" gradientTransform="translate(760 198.8) rotate(180)" gradientUnits="userSpaceOnUse"><stop offset="0" stop-color="#636363"/><stop offset="1" stop-color="#fff"/></linearGradient><linearGradient id="linear-gradient-5" x1="68.58" y1="-201.2" x2="68.58" y2="47.97" xlink:href="#linear-gradient-4"/><linearGradient id="linear-gradient-6" x1="116.49" y1="-201.2" x2="116.49" y2="82.66" xlink:href="#linear-gradient-4"/><linearGradient id="linear-gradient-7" x1="164.4" y1="-201.2" x2="164.4" y2="-15.51" xlink:href="#linear-gradient-4"/><linearGradient id="linear-gradient-8" x1="212.31" y1="-201.2" x2="212.31" y2="20.51" xlink:href="#linear-gradient-4"/><linearGradient id="linear-gradient-9" x1="260.22" y1="-201.2" x2="260.22" y2="64.37" xlink:href="#linear-gradient-4"/><linearGradient id="linear-gradient-10" x1="308.13" y1="-201.2" x2="308.13" y2="48.89" xlink:href="#linear-gradient-4"/><linearGradient id="linear-gradient-11" x1="356.04" y1="-201.2" x2="356.04" y2="36.82" xlink:href="#linear-gradient-4"/><linearGradient id="linear-gradient-12" x1="403.96" y1="-201.2" x2="403.96" y2="-17.16" xlink:href="#linear-gradient-4"/><linearGradient id="linear-gradient-13" x1="451.87" y1="-201.2" x2="451.87" y2="19.51" xlink:href="#linear-gradient-4"/><linearGradient id="linear-gradient-14" x1="499.78" y1="-201.2" x2="499.78" y2="36.82" xlink:href="#linear-gradient-4"/><linearGradient id="linear-gradient-15" x1="547.69" y1="-201.2" x2="547.69" y2="-28.09" xlink:href="#linear-gradient-4"/><linearGradient id="linear-gradient-16" x1="595.6" y1="-201.2" x2="595.6" y2="22.62" xlink:href="#linear-gradient-4"/><linearGradient id="linear-gradient-17" x1="643.51" y1="-201.2" x2="643.51" y2="82.66" xlink:href="#linear-gradient-4"/><linearGradient id="linear-gradient-18" x1="691.42" y1="-201.2" x2="691.42" y2="55.8" xlink:href="#linear-gradient-4"/><linearGradient id="linear-gradient-19" x1="739.34" y1="-201.2" x2="739.34" y2="46.69" xlink:href="#linear-gradient-4"/><linearGradient id="linear-gradient-20" x1="10.5" y1="400" x2="10.5" y2="238.11" gradientTransform="matrix(-1, 0, 0, 1, 760, 0)" xlink:href="#linear-gradient-4"/><linearGradient id="linear-gradient-21" x1="38.93" y1="400" x2="38.93" y2="226.85" gradientTransform="matrix(-1, 0, 0, 1, 760, 0)" xlink:href="#linear-gradient-4"/><linearGradient id="linear-gradient-22" x1="67.35" y1="400" x2="67.35" y2="247.31" gradientTransform="matrix(-1, 0, 0, 1, 760, 0)" xlink:href="#linear-gradient-4"/><linearGradient id="linear-gradient-23" x1="95.77" y1="400" x2="95.77" y2="270.03" gradientTransform="matrix(-1, 0, 0, 1, 760, 0)" xlink:href="#linear-gradient-4"/><linearGradient id="linear-gradient-24" x1="124.19" y1="400" x2="124.19" y2="308.07" gradientTransform="matrix(-1, 0, 0, 1, 760, 0)" xlink:href="#linear-gradient-4"/><linearGradient id="linear-gradient-25" x1="152.62" y1="400" x2="152.62" y2="283.48" gradientTransform="matrix(-1, 0, 0, 1, 760, 0)" xlink:href="#linear-gradient-4"/><linearGradient id="linear-gradient-26" x1="181.04" y1="400" x2="181.04" y2="266.53" gradientTransform="matrix(-1, 0, 0, 1, 760, 0)" xlink:href="#linear-gradient-4"/><linearGradient id="linear-gradient-27" x1="209.46" y1="400" x2="209.46" y2="283.48" gradientTransform="matrix(-1, 0, 0, 1, 760, 0)" xlink:href="#linear-gradient-4"/><linearGradient id="linear-gradient-28" x1="237.89" y1="400" x2="237.89" y2="308.07" gradientTransform="matrix(-1, 0, 0, 1, 760, 0)" xlink:href="#linear-gradient-4"/><linearGradient id="linear-gradient-29" x1="266.31" y1="400" x2="266.31" y2="256.6" gradientTransform="matrix(-1, 0, 0, 1, 760, 0)" xlink:href="#linear-gradient-4"/><linearGradient id="linear-gradient-30" x1="294.73" y1="400" x2="294.73" y2="231.35" gradientTransform="matrix(-1, 0, 0, 1, 760, 0)" xlink:href="#linear-gradient-4"/><linearGradient id="linear-gradient-31" x1="323.15" y1="400" x2="323.15" y2="266.53" gradientTransform="matrix(-1, 0, 0, 1, 760, 0)" xlink:href="#linear-gradient-4"/><linearGradient id="linear-gradient-32" x1="351.58" y1="400" x2="351.58" y2="283.59" gradientTransform="matrix(-1, 0, 0, 1, 760, 0)" xlink:href="#linear-gradient-4"/><linearGradient id="linear-gradient-33" x1="380" y1="400" x2="380" y2="294.56" gradientTransform="matrix(-1, 0, 0, 1, 760, 0)" xlink:href="#linear-gradient-4"/><linearGradient id="linear-gradient-34" x1="408.42" y1="400" x2="408.42" y2="282.37" gradientTransform="matrix(-1, 0, 0, 1, 760, 0)" xlink:href="#linear-gradient-4"/><linearGradient id="linear-gradient-35" x1="436.85" y1="400" x2="436.85" y2="265.31" gradientTransform="matrix(-1, 0, 0, 1, 760, 0)" xlink:href="#linear-gradient-4"/><linearGradient id="linear-gradient-36" x1="465.27" y1="400" x2="465.27" y2="250.68" gradientTransform="matrix(-1, 0, 0, 1, 760, 0)" xlink:href="#linear-gradient-4"/><linearGradient id="linear-gradient-37" x1="493.69" y1="400" x2="493.69" y2="239.94" gradientTransform="matrix(-1, 0, 0, 1, 760, 0)" xlink:href="#linear-gradient-4"/><linearGradient id="linear-gradient-38" x1="522.11" y1="400" x2="522.11" y2="251.12" gradientTransform="matrix(-1, 0, 0, 1, 760, 0)" xlink:href="#linear-gradient-4"/><linearGradient id="linear-gradient-39" x1="550.54" y1="400" x2="550.54" y2="255.15" gradientTransform="matrix(-1, 0, 0, 1, 760, 0)" xlink:href="#linear-gradient-4"/><linearGradient id="linear-gradient-40" x1="578.96" y1="400" x2="578.96" y2="286.68" gradientTransform="matrix(-1, 0, 0, 1, 760, 0)" xlink:href="#linear-gradient-4"/><linearGradient id="linear-gradient-41" x1="607.38" y1="400" x2="607.38" y2="264.71" gradientTransform="matrix(-1, 0, 0, 1, 760, 0)" xlink:href="#linear-gradient-4"/><linearGradient id="linear-gradient-42" x1="635.81" y1="400" x2="635.81" y2="271.53" gradientTransform="matrix(-1, 0, 0, 1, 760, 0)" xlink:href="#linear-gradient-4"/><linearGradient id="linear-gradient-43" x1="664.23" y1="400" x2="664.23" y2="248.69" gradientTransform="matrix(-1, 0, 0, 1, 760, 0)" xlink:href="#linear-gradient-4"/><linearGradient id="linear-gradient-44" x1="692.65" y1="400" x2="692.65" y2="247.31" gradientTransform="matrix(-1, 0, 0, 1, 760, 0)" xlink:href="#linear-gradient-4"/><linearGradient id="linear-gradient-45" x1="721.07" y1="400" x2="721.07" y2="267.21" gradientTransform="matrix(-1, 0, 0, 1, 760, 0)" xlink:href="#linear-gradient-4"/><linearGradient id="linear-gradient-46" x1="749.5" y1="400" x2="749.5" y2="298.35" gradientTransform="matrix(-1, 0, 0, 1, 760, 0)" xlink:href="#linear-gradient-4"/><mask id="mask" x="0" y="0" width="760" height="400" maskUnits="userSpaceOnUse"><rect class="cls-1" width="760" height="400"/></mask></defs><g class="cls-2"><g id="Layer_1" data-name="Layer 1"><rect class="cls-3" width="760" height="400"/><path class="cls-4" d="M59.2,400h.3V337.57h91.31V400h.3V337.57h91.32V400h.3V337.57H334V400h.3V337.57h91.32V400h.3V337.57h91.31V400h.3V337.57h91.31V400h.31V337.57H700.5V400h.3V337.57H760v-.3H700.8V246H760v-.3H700.8V154.34H760V154H700.8V62.73H760v-.3H700.8V0h-.3V62.43H609.19V0h-.31V62.43H517.57V0h-.3V62.43H426V0h-.3V62.43H334.34V0H334V62.43H242.73V0h-.3V62.43H151.11V0h-.3V62.43H59.5V0h-.3V62.43H0v.3H59.2V154H0v.3H59.2v91.32H0v.3H59.2v91.31H0v.3H59.2Zm550-337.27H700.5V154H609.19Zm0,91.61H700.5v91.32H609.19Zm0,91.62H700.5v91.31H609.19ZM517.57,62.73h91.31V154H517.57Zm0,91.61h91.31v91.32H517.57Zm0,91.62h91.31v91.31H517.57ZM426,62.73h91.31V154H426Zm0,91.61h91.31v91.32H426ZM426,246h91.31v91.31H426ZM334.34,62.73h91.32V154H334.34Zm0,91.61h91.32v91.32H334.34Zm0,91.62h91.32v91.31H334.34ZM242.73,62.73H334V154H242.73Zm0,91.61H334v91.32H242.73Zm0,91.62H334v91.31H242.73ZM151.11,62.73h91.32V154H151.11Zm0,91.61h91.32v91.32H151.11Zm0,91.62h91.32v91.31H151.11ZM59.5,62.73h91.31V154H59.5Zm0,91.61h91.31v91.32H59.5Zm0,91.62h91.31v91.31H59.5Z"/><g class="cls-5"><rect class="cls-6" x="718.67" y="134.43" width="41.33" height="265.57"/><rect class="cls-7" x="670.76" y="150.83" width="41.33" height="249.17"/><rect class="cls-8" x="622.85" y="116.14" width="41.33" height="283.86"/><rect class="cls-9" x="574.94" y="214.31" width="41.33" height="185.69"/><rect class="cls-10" x="527.03" y="178.29" width="41.33" height="221.71"/><rect class="cls-11" x="479.12" y="134.43" width="41.33" height="265.57"/><rect class="cls-12" x="431.2" y="149.91" width="41.33" height="250.09"/><rect class="cls-13" x="383.29" y="161.98" width="41.33" height="238.02"/><rect class="cls-14" x="335.38" y="215.96" width="41.33" height="184.04"/><rect class="cls-15" x="287.47" y="179.29" width="41.33" height="220.71"/><rect class="cls-16" x="239.56" y="161.98" width="41.33" height="238.02"/><rect class="cls-17" x="191.65" y="226.89" width="41.33" height="173.11"/><rect class="cls-18" x="143.73" y="176.18" width="41.33" height="223.82"/><rect class="cls-19" x="95.82" y="116.14" width="41.33" height="283.86"/><rect class="cls-20" x="47.91" y="143" width="41.33" height="257"/><rect class="cls-21" y="152.11" width="41.33" height="247.89"/></g><g class="cls-22"><rect class="cls-23" x="738.99" y="238.11" width="21.01" height="161.89"/><rect class="cls-24" x="710.57" y="226.85" width="21.01" height="173.15"/><rect class="cls-25" x="682.15" y="247.31" width="21.01" height="152.69"/><rect class="cls-26" x="653.73" y="270.03" width="21.01" height="129.97"/><rect class="cls-27" x="625.3" y="308.07" width="21" height="91.93"/><rect class="cls-28" x="596.88" y="283.48" width="21.01" height="116.52"/><rect class="cls-29" x="568.46" y="266.53" width="21.01" height="133.47"/><rect class="cls-30" x="540.03" y="283.48" width="21.01" height="116.52"/><rect class="cls-31" x="511.61" y="308.07" width="21.01" height="91.93"/><rect class="cls-32" x="483.19" y="256.6" width="21.01" height="143.4"/><rect class="cls-33" x="454.77" y="231.35" width="21" height="168.65"/><rect class="cls-34" x="426.34" y="266.53" width="21.01" height="133.47"/><rect class="cls-35" x="397.92" y="283.59" width="21.01" height="116.41"/><rect class="cls-36" x="369.5" y="294.56" width="21.01" height="105.44"/><rect class="cls-37" x="341.07" y="282.37" width="21.01" height="117.63"/><rect class="cls-38" x="312.65" y="265.31" width="21.01" height="134.69"/><rect class="cls-39" x="284.23" y="250.68" width="21.01" height="149.32"/><rect class="cls-40" x="255.81" y="239.94" width="21.01" height="160.06"/><rect class="cls-41" x="227.38" y="251.12" width="21.01" height="148.88"/><rect class="cls-42" x="198.96" y="255.15" width="21.01" height="144.85"/><rect class="cls-43" x="170.54" y="286.68" width="21.01" height="113.32"/><rect class="cls-44" x="142.11" y="264.71" width="21.01" height="135.29"/><rect class="cls-45" x="113.69" y="271.53" width="21.01" height="128.47"/><rect class="cls-46" x="85.27" y="248.69" width="21.01" height="151.31"/><rect class="cls-47" x="56.85" y="247.31" width="21.01" height="152.69"/><rect class="cls-48" x="28.42" y="267.21" width="21.01" height="132.79"/><rect class="cls-49" y="298.35" width="21.01" height="101.65"/></g><g class="cls-50"><path class="cls-51" d="M760,222.42l-70.39-30.56A8.55,8.55,0,1,0,674,194.29L588.63,269a8.53,8.53,0,0,0-13.18,3.1l-81.8-21.5a6.34,6.34,0,0,0,0-.76,8.55,8.55,0,0,0-17.1,0,8.29,8.29,0,0,0,.34,2.35L394,291.94a8.53,8.53,0,0,0-14.87,1.64l-81.67-18.84c0-.16,0-.33,0-.5a8.55,8.55,0,1,0-16.44,3.3l-83.85,53a8.52,8.52,0,0,0-14,1.92l-82-24.6a7.45,7.45,0,0,0,.08-1.06,8.55,8.55,0,0,0-17.1,0,8.42,8.42,0,0,0,.14,1.52L0,338.87v3L85.36,311a8.53,8.53,0,0,0,15.09-.42l82,24.61a9.28,9.28,0,0,0-.07,1.06,8.55,8.55,0,1,0,16.44-3.3l83.85-53.05a8.52,8.52,0,0,0,14.24-2.42l81.67,18.84c0,.17,0,.33,0,.5a8.55,8.55,0,0,0,17.1,0,8.67,8.67,0,0,0-.34-2.35l82.89-39.75a8.54,8.54,0,0,0,14.77-1.4l81.79,21.49c0,.25,0,.51,0,.77a8.55,8.55,0,1,0,17.1,0,8.42,8.42,0,0,0-1.28-4.47l85.41-74.71a8.53,8.53,0,0,0,12.56-2L760,225.53ZM92.8,312.54a5.7,5.7,0,1,1,5.7-5.7A5.7,5.7,0,0,1,92.8,312.54ZM190.88,342a5.7,5.7,0,1,1,5.7-5.7A5.71,5.71,0,0,1,190.88,342ZM289,279.94a5.7,5.7,0,1,1,5.7-5.7A5.71,5.71,0,0,1,289,279.94Zm98.09,22.62a5.7,5.7,0,1,1,5.7-5.7A5.7,5.7,0,0,1,387.06,302.56Zm98.08-47a5.7,5.7,0,1,1,5.7-5.7A5.71,5.71,0,0,1,485.14,255.54Zm98.09,25.78a5.7,5.7,0,1,1,5.7-5.7A5.7,5.7,0,0,1,583.23,281.32Zm98.09-85.8a5.7,5.7,0,1,1,5.7-5.7A5.7,5.7,0,0,1,681.32,195.52Z"/><path class="cls-52" d="M760,90.64,689.65,71.26a8.12,8.12,0,0,0,0-.86A8.55,8.55,0,1,0,675,76.33L586.91,195.77a8.47,8.47,0,0,0-3.85-.92,8.57,8.57,0,0,0-8.22,6.19L493.5,192a8.55,8.55,0,1,0-16.37,3.88l-84,54.5a8.51,8.51,0,0,0-12.24-.34l-84.49-61.78a8.55,8.55,0,1,0-16.19-3.82,8.52,8.52,0,0,0,2.31,5.83L194.68,305.56a8.4,8.4,0,0,0-4-1,8.55,8.55,0,0,0-7,3.71l-82.81-38.5a8.45,8.45,0,0,0,.31-2.26,8.55,8.55,0,1,0-17.09,0,8.43,8.43,0,0,0,.28,2.14L0,307.41v3.12l85.52-38.27a8.53,8.53,0,0,0,14.14.1l82.81,38.5a8.87,8.87,0,0,0-.31,2.26A8.55,8.55,0,1,0,197,307.29L284.83,192a8.4,8.4,0,0,0,4,1,8.51,8.51,0,0,0,5.95-2.43l84.5,61.78a8.47,8.47,0,0,0-.91,3.82,8.55,8.55,0,1,0,16.39-3.39l84-54.51a8.52,8.52,0,0,0,14.5-3.42l81.34,9.08a8.55,8.55,0,1,0,14.67-6.42L677.29,78a8.5,8.5,0,0,0,11.59-4L760,93.6ZM92.62,273.22a5.7,5.7,0,1,1,5.71-5.7A5.71,5.71,0,0,1,92.62,273.22Zm98.09,45.6a5.7,5.7,0,1,1,5.7-5.7A5.71,5.71,0,0,1,190.71,318.82ZM288.8,190.1a5.7,5.7,0,1,1,5.7-5.7A5.7,5.7,0,0,1,288.8,190.1Zm98.08,71.72a5.7,5.7,0,1,1,5.7-5.7A5.71,5.71,0,0,1,386.88,261.82ZM485,198.15a5.7,5.7,0,1,1,5.7-5.7A5.71,5.71,0,0,1,485,198.15Zm98.09,10.95a5.7,5.7,0,1,1,5.7-5.7A5.71,5.71,0,0,1,583.06,209.1Zm98.08-133a5.7,5.7,0,1,1,5.7-5.7A5.71,5.71,0,0,1,681.14,76.1Z"/><path class="cls-53" d="M760,132.05l-70.52,4a8.53,8.53,0,0,0-14.27-4.24L590.68,69.56a8.45,8.45,0,0,0,.93-3.85,8.55,8.55,0,0,0-17.1,0A8.41,8.41,0,0,0,575,68.6l-83.4,46.85a8.54,8.54,0,0,0-15.2,5.36,8.27,8.27,0,0,0,.17,1.66l-82.34,31.2A8.54,8.54,0,0,0,378.34,158a8.46,8.46,0,0,0,1.36,4.61l-85.63,77.85a8.45,8.45,0,0,0-5.27-1.84,8.56,8.56,0,0,0-7.53,4.5l-82.13-27.84a8.54,8.54,0,1,0-17-1.36,8.48,8.48,0,0,0,1,3.92L98.5,281.35a8.51,8.51,0,0,0-10.69-.87L0,189.09v4.11l85.77,89.26a8.45,8.45,0,0,0-1.69,5.08,8.55,8.55,0,1,0,16.14-3.92l84.61-63.51A8.55,8.55,0,0,0,198.24,218l82.13,27.84a7.53,7.53,0,0,0-.12,1.35A8.55,8.55,0,1,0,296,242.55l85.62-77.84A8.54,8.54,0,0,0,395.43,158a8.1,8.1,0,0,0-.16-1.65l82.33-31.21a8.54,8.54,0,0,0,15.41-7.2l83.4-46.85a8.52,8.52,0,0,0,12.58.77l84.53,62.22a8.44,8.44,0,0,0-.93,3.84,8.55,8.55,0,0,0,17,1l70.36-4ZM92.62,293.24a5.7,5.7,0,1,1,5.71-5.7A5.71,5.71,0,0,1,92.62,293.24Zm98.09-73.63a5.7,5.7,0,1,1,5.7-5.7A5.7,5.7,0,0,1,190.71,219.61Zm98.09,33.25a5.7,5.7,0,1,1,5.7-5.7A5.7,5.7,0,0,1,288.8,252.86Zm98.08-89.17a5.7,5.7,0,1,1,5.7-5.7A5.71,5.71,0,0,1,386.88,163.69ZM485,126.51a5.7,5.7,0,1,1,5.7-5.7A5.7,5.7,0,0,1,485,126.51Zm98.09-55.1a5.7,5.7,0,1,1,5.7-5.7A5.7,5.7,0,0,1,583.06,71.41Zm98.08,72.2a5.7,5.7,0,1,1,5.7-5.7A5.7,5.7,0,0,1,681.14,143.61Z"/></g></g></g></svg>